<svg xmlns="http://www.w3.org/2000/svg" xml:space="preserve" viewBox="0 0 24 24" id="unlike">
  <path d="M13.71 22.355c-.651 0-1.207-.306-1.525-.834a.51.51 0 0 1-.07-.258v-2.688c-.973-2.802-1.903-4.627-3.744-5.656a.506.506 0 0 1-.256-.438V4.335c0-.979 1.769-1.69 2.52-1.69h9.228c.453 0 .896.231 1.279.672.498.571.813 1.394.822 2.101.75.551 1.1 1.516 1.036 2.873.783.822.764 2.039.491 2.8.335.479.396 1.313.396 1.854 0 1.562-2.15 2.699-3.064 2.699h-4.215c.694 3.027-.117 4.722-.692 5.48-.587.771-1.41 1.231-2.206 1.231zm-.597-1.25c.174.203.414.25.597.25.483 0 1.011-.313 1.405-.834.502-.664 1.218-2.229.365-5.242a.5.5 0 0 1 .48-.634h4.857c.548 0 2.065-.847 2.065-1.701 0-.72-.132-1.146-.207-1.269a.494.494 0 0 1-.221-.731c.229-.354.408-1.479-.294-2.065a.5.5 0 0 1-.178-.425c.097-1.232-.157-1.998-.777-2.332a.5.5 0 0 1-.258-.509c.064-.479-.184-1.198-.567-1.639-.183-.209-.374-.329-.524-.329H10.63c-.478 0-1.423.49-1.525.738l.006 7.813c1.958 1.212 2.98 3.261 3.973 6.136a.424.424 0 0 1 .026.162v2.609h.002v.002h.001z"></path>
  <path d="M7.359 15.645H1.867a1.756 1.756 0 0 1-1.754-1.754V3.397c0-.967.787-1.753 1.754-1.753h5.492c.967 0 1.754.786 1.754 1.753V13.89c0 .967-.787 1.755-1.754 1.755zm-5.492-13a.754.754 0 0 0-.754.753v10.493c0 .416.338.754.754.754h5.492a.755.755 0 0 0 .754-.754V3.397a.754.754 0 0 0-.754-.753l-5.492.001z"></path>
</svg>
